<?xml version="1.0" encoding="UTF-8"?>
<!-- Generated by Pixelmator Pro 3.7.1 -->
<svg width="128" height="128" viewBox="0 0 128 128" xmlns="http://www.w3.org/2000/svg">
    <g id="Group">
        <path id="Path" fill="#ffffff" fill-rule="evenodd" stroke="none" d="M 64 5.102997 C 30.653 5.102997 3.612 32.138 3.612 65.490997 C 3.612 92.172997 20.915001 114.807999 44.909 122.793999 C 47.925999 123.353996 49.034 121.484001 49.034 119.889 C 49.034 118.448997 48.978001 113.692001 48.952 108.646004 C 32.152 112.299004 28.607 101.521004 28.607 101.521004 C 25.860001 94.541 21.902 92.684998 21.902 92.684998 C 16.422001 88.936996 22.315001 89.014999 22.315001 89.014999 C 28.378 89.440002 31.572001 95.237999 31.572001 95.237999 C 36.958 104.468002 45.699001 101.800003 49.145 100.258003 C 49.687 96.355003 51.251999 93.690002 52.979 92.181999 C 39.566002 90.656998 25.465 85.477997 25.465 62.339005 C 25.465 55.746002 27.825001 50.359001 31.688 46.128998 C 31.059999 44.609001 28.993 38.466995 32.271999 30.149002 C 32.271999 30.149002 37.341999 28.526001 48.882 36.339005 C 53.700001 35 58.867001 34.326996 64 34.304001 C 69.129997 34.326996 74.300003 34.998001 79.126999 36.337006 C 90.653 28.524002 95.717003 30.147003 95.717003 30.147003 C 99.003998 38.464005 96.936996 44.606995 96.309998 46.126999 C 100.181999 50.356995 102.525002 55.744003 102.525002 62.337006 C 102.525002 85.530998 88.398003 90.637001 74.950996 92.133003 C 77.117996 94.007004 79.047997 97.682999 79.047997 103.316002 C 79.047997 111.396004 78.977997 117.899002 78.977997 119.888 C 78.977997 121.495003 80.066002 123.377998 83.125999 122.785004 C 107.106003 114.791 124.389 92.163002 124.389 65.490997 C 124.388 32.139999 97.349998 5.104004 64 5.104004 Z"/>
        <path id="path1" fill="#181616" stroke="none" d="M 26.483999 91.806 C 26.351 92.106003 25.879 92.195999 25.448999 91.990997 C 25.009001 91.794998 24.764 91.386002 24.906 91.084999 C 25.035999 90.775002 25.509001 90.690002 25.945999 90.897003 C 26.386 91.094002 26.636 91.507004 26.483 91.806999 Z M 28.93 94.535004 C 28.643 94.802002 28.08 94.678001 27.698 94.254997 C 27.302 93.834999 27.228001 93.272003 27.521 93.000999 C 27.819 92.735001 28.365 92.861 28.761 93.280998 C 29.155001 93.707001 29.233 94.264999 28.931 94.536003 Z M 31.312 98.012001 C 30.941999 98.269997 30.336 98.028999 29.962 97.491997 C 29.591999 96.954002 29.591999 96.308998 29.972 96.052002 C 30.344999 95.793999 30.941999 96.027 31.322001 96.558998 C 31.690001 97.103996 31.690001 97.749001 31.312 98.011002 Z M 34.573002 101.373001 C 34.243 101.737999 33.536999 101.639999 33.021 101.142998 C 32.493999 100.655998 32.347 99.962997 32.678001 99.598999 C 33.014 99.233002 33.723 99.334999 34.242001 99.829002 C 34.769001 100.315002 34.928001 101.009003 34.575001 101.372002 Z M 39.073002 103.323997 C 38.925999 103.796997 38.248001 104.012001 37.563 103.809998 C 36.880001 103.602997 36.432999 103.050003 36.573002 102.571999 C 36.713001 102.095001 37.396 101.872002 38.084999 102.086998 C 38.768002 102.292999 39.215 102.843002 39.073002 103.323997 Z M 44.015999 103.684998 C 44.033001 104.182999 43.452999 104.595001 42.736 104.605003 C 42.013 104.622002 41.428001 104.218002 41.421001 103.727997 C 41.421001 103.224998 41.988998 102.818001 42.710999 102.804001 C 43.428001 102.791 44.016998 103.191002 44.016998 103.683998 Z M 48.613998 102.903 C 48.700001 103.388 48.201 103.887001 47.487999 104.019997 C 46.787998 104.150002 46.138 103.848 46.048 103.366997 C 45.962002 102.869003 46.470001 102.370003 47.169998 102.240997 C 47.883999 102.117996 48.523998 102.411003 48.613998 102.903999 Z M 48.613998 102.903"/>
    </g>
</svg>
